<?xml version="1.0" ?><svg height="400" id="svg" style="display: block;" version="1.1" width="400" xmlns="http://www.w3.org/2000/svg" xmlns:xlink="http://www.w3.org/1999/xlink"><g id="svgg"><path d="" fill="#ffffff" fill-rule="evenodd" id="path0" stroke="none"/><path d="" fill="#ffffff" fill-rule="evenodd" id="path1" stroke="none"/><path d="M183.984 0.431 C 62.305 11.041,-21.365 124.099,4.528 242.920 C 28.104 351.104,136.466 419.455,245.117 394.674 C 324.809 376.498,386.519 309.667,398.005 229.102 C 399.677 217.374,399.805 215.289,399.805 199.805 C 399.805 184.320,399.677 182.236,398.005 170.508 C 383.293 67.309,287.750 -8.617,183.984 0.431 M211.523 16.806 C 325.729 24.372,405.210 132.229,378.328 243.164 C 358.476 325.089,284.481 383.191,200.000 383.191 C 98.875 383.191,16.406 300.816,16.406 199.805 C 16.406 94.321,106.474 9.848,211.523 16.806 M169.727 84.254 C 153.591 85.319,136.738 89.864,134.950 93.633 C 132.513 98.770,135.892 101.423,143.301 100.191 C 181.538 93.829,213.141 121.801,198.617 149.151 C 197.667 150.940,193.547 157.132,189.461 162.910 C 185.374 168.689,182.031 173.572,182.031 173.762 C 182.031 173.951,185.415 176.454,189.551 179.323 C 193.687 182.192,201.816 187.873,207.617 191.948 C 213.418 196.022,218.775 199.775,219.523 200.288 C 220.270 200.800,220.982 201.381,221.105 201.580 C 221.228 201.779,222.782 200.109,224.558 197.870 C 240.524 177.742,261.874 174.672,270.019 191.333 L 271.793 194.962 272.942 193.282 C 274.266 191.345,285.145 175.817,290.814 167.773 C 292.933 164.766,295.395 161.250,296.283 159.961 C 297.172 158.672,299.602 155.219,301.684 152.288 C 306.170 145.973,306.051 146.485,303.027 146.481 C 288.626 146.464,275.431 137.374,267.187 121.791 L 265.386 118.387 258.377 113.465 C 228.380 92.403,197.989 82.388,169.727 84.254 M313.031 149.921 C 310.401 153.766,301.205 167.109,298.245 171.373 C 297.169 172.923,293.830 177.757,290.825 182.115 C 285.346 190.061,283.538 192.675,279.008 199.200 C 277.667 201.131,276.525 202.873,276.469 203.072 C 276.413 203.270,277.951 204.550,279.886 205.915 C 286.731 210.745,286.646 210.702,289.731 210.869 C 294.801 211.143,296.011 210.148,302.930 200.019 C 304.863 197.188,306.885 194.280,307.422 193.557 C 307.959 192.834,310.068 189.824,312.109 186.867 C 314.150 183.910,318.336 177.891,321.411 173.491 C 331.340 159.285,331.186 157.394,319.452 149.335 L 315.355 146.521 313.031 149.921 M180.044 187.602 C 179.273 188.728,176.541 192.637,173.973 196.289 C 171.404 199.941,167.393 205.654,165.059 208.984 C 162.725 212.314,160.192 215.918,159.430 216.992 C 158.668 218.066,157.245 220.102,156.268 221.515 C 151.780 228.010,142.119 241.803,139.648 245.245 C 138.145 247.339,134.660 252.298,131.906 256.265 C 129.151 260.231,126.019 264.707,124.946 266.211 C 123.873 267.715,122.399 269.824,121.670 270.898 C 120.941 271.973,119.408 274.170,118.264 275.781 C 117.119 277.393,113.769 282.182,110.819 286.425 L 105.455 294.140 106.486 296.175 C 110.569 304.232,120.174 311.637,130.078 314.362 C 135.458 315.842,135.645 315.826,137.125 313.737 C 137.836 312.734,141.253 307.871,144.719 302.930 C 148.186 297.988,151.638 293.066,152.392 291.992 C 153.146 290.918,154.991 288.281,156.493 286.133 C 157.995 283.984,160.958 279.766,163.078 276.758 C 165.198 273.750,167.726 270.146,168.695 268.750 C 171.430 264.808,175.052 259.639,178.821 254.297 C 180.715 251.611,184.787 245.811,187.869 241.406 C 190.952 237.002,195.092 231.113,197.071 228.320 C 199.050 225.527,203.001 219.902,205.852 215.820 C 208.703 211.738,211.277 208.121,211.572 207.782 C 212.402 206.829,212.249 206.527,210.254 205.177 C 209.233 204.487,207.520 203.297,206.445 202.533 C 205.371 201.770,202.822 199.997,200.781 198.594 C 198.740 197.192,193.730 193.685,189.648 190.803 C 181.048 184.729,181.833 184.990,180.044 187.602 " fill="#ffffff" fill-rule="evenodd" id="path2" stroke="none"/><path d="" fill="#ffffff" fill-rule="evenodd" id="path3" stroke="none"/><path d="" fill="#ffffff" fill-rule="evenodd" id="path4" stroke="none"/></g></svg>