<?xml version="1.0" encoding="UTF-8" standalone="no"?>
<!-- Generator: Adobe Illustrator 16.0.0, SVG Export Plug-In . SVG Version: 6.00 Build 0)  -->

<svg
   version="1.1"
   id="Layer_1"
   x="0px"
   y="0px"
   width="189.211px"
   height="211.778px"
   viewBox="0 0 189.211 211.778"
   enable-background="new 0 0 189.211 211.778"
   xml:space="preserve"
   sodipodi:docname="akai_logo.svg"
   inkscape:version="1.3.2 (091e20ef0f, 2023-11-25, custom)"
   xmlns:inkscape="http://www.inkscape.org/namespaces/inkscape"
   xmlns:sodipodi="http://sodipodi.sourceforge.net/DTD/sodipodi-0.dtd"
   xmlns="http://www.w3.org/2000/svg"
   xmlns:svg="http://www.w3.org/2000/svg"><defs
   id="defs6" /><sodipodi:namedview
   id="namedview6"
   pagecolor="#ffffff"
   bordercolor="#000000"
   borderopacity="0.25"
   inkscape:showpageshadow="2"
   inkscape:pageopacity="0.0"
   inkscape:pagecheckerboard="0"
   inkscape:deskcolor="#d1d1d1"
   showgrid="false"
   inkscape:zoom="1.3489179"
   inkscape:cx="226.47783"
   inkscape:cy="89.701529"
   inkscape:window-width="1920"
   inkscape:window-height="1012"
   inkscape:window-x="0"
   inkscape:window-y="0"
   inkscape:window-maximized="1"
   inkscape:current-layer="g6" />
<g
   id="g6">
	<path
   fill-rule="evenodd"
   clip-rule="evenodd"
   fill="#FAA21B"
   d="M45.2,21.895c24.751,0,44.853,19.896,45.192,44.566H90.4v0.634   v45.2H45.2h-0.517v-0.006C19.958,112.011,0,91.886,0,67.095C0,42.131,20.237,21.895,45.2,21.895L45.2,21.895z M45.102,40.259   c-14.447,0-26.159,12.015-26.159,26.835c0,14.718,11.55,26.667,25.86,26.832v0.003h0.299h26.159V67.095v-0.376h-0.005   C71.06,52.071,59.426,40.259,45.102,40.259z"
   id="path1" />
	<path
   fill-rule="evenodd"
   clip-rule="evenodd"
   class="fill-[#001936] dark:fill-white"
   d="M45.2,210.766c24.751,0,44.853-19.896,45.192-44.566H90.4v-0.634   v-45.2H45.2h-0.517v0.006C19.958,120.65,0,140.775,0,165.566C0,190.528,20.237,210.766,45.2,210.766L45.2,210.766z M45.102,192.401   c-14.447,0-26.159-12.015-26.159-26.835c0-14.718,11.55-26.667,25.86-26.832v-0.003h0.299h26.159v26.835v0.376h-0.005   C71.06,180.589,59.426,192.401,45.102,192.401z"
   id="path2" />
	<path
   fill-rule="evenodd"
   clip-rule="evenodd"
   class="fill-[#001936] dark:fill-white"
   d="M98.542,0.008c9-0.204,17.93,3.545,19.049,20.216v38.209h28.107   c19.462-0.382,25.341-20.076,24.511-35.74h18.93c0.93,25.328-7.374,37.651-18.424,44.506c11.051,6.855,19.354,19.178,18.424,44.506   h-18.93c0.92-17.349-2.17-30.688-23.86-35.727l-28.759,0.162v18.261c-7.856,0.787-10.332,0.971-19.049,9.653V0.008z"
   id="path3" />
	<path
   fill-rule="evenodd"
   clip-rule="evenodd"
   fill="#FAA21B"
   d="M117.863,117.782v-17.263c-9.81,0-17.839,7.62-18.496,17.263   l-0.044,1.276v17.263c9.81,0,17.839-7.62,18.495-17.263L117.863,117.782z"
   id="path4" />
	<path
   fill-rule="evenodd"
   clip-rule="evenodd"
   class="fill-[#001936] dark:fill-white"
   d="M170.043,120.958h18.579l-0.031,36.897   c-0.656,9.644-8.686,17.263-18.496,17.263v-17.263L170.043,120.958z"
   id="path5" />
	<path
   fill-rule="evenodd"
   clip-rule="evenodd"
   class="fill-[#001936] dark:fill-white"
   d="M99.522,142.71c8.802-0.187,15.365-4.473,18.577-9.317   l-0.031,61.122c-0.656,9.644-8.686,17.263-18.496,17.263v-17.263L99.522,142.71z"
   id="path6" />
</g>
</svg>
